<svg width="33" height="34" viewBox="0 0 33 34" fill="none" xmlns="http://www.w3.org/2000/svg">
<mask id="path-1-inside-1_67_150814" fill="white">
<path d="M25.1997 25.6997C25.8958 26.3958 25.9015 27.5338 25.1301 28.1454C23.608 29.3523 21.8683 30.2656 19.9994 30.8326C17.5602 31.5725 14.9761 31.6995 12.4761 31.2022C9.97608 30.7049 7.6373 29.5987 5.6669 27.9817C3.6965 26.3646 2.15532 24.2865 1.17986 21.9316C0.204409 19.5766 -0.175209 17.0174 0.0746377 14.4807C0.324484 11.944 1.19608 9.50806 2.61223 7.38865C4.02837 5.26924 5.94535 3.5318 8.19336 2.33021C9.91578 1.40957 11.7918 0.825272 13.7214 0.602379C14.6994 0.489415 15.5 1.29805 15.5 2.2825V2.2825C15.5 3.26695 14.6976 4.05138 13.7241 4.19786C12.3816 4.39988 11.0789 4.83017 9.87389 5.47427C8.14292 6.39949 6.66685 7.73732 5.57642 9.36926C4.48598 11.0012 3.81485 12.8769 3.62247 14.8302C3.43009 16.7834 3.7224 18.754 4.4735 20.5673C5.2246 22.3806 6.41131 23.9807 7.92851 25.2259C9.44572 26.471 11.2466 27.3228 13.1716 27.7057C15.0966 28.0886 17.0863 27.9908 18.9645 27.4211C20.2721 27.0245 21.4974 26.4076 22.5896 25.6011C23.3816 25.0163 24.5036 25.0036 25.1997 25.6997V25.6997Z"/>
</mask>
<path d="M25.1997 25.6997C25.8958 26.3958 25.9015 27.5338 25.1301 28.1454C23.608 29.3523 21.8683 30.2656 19.9994 30.8326C17.5602 31.5725 14.9761 31.6995 12.4761 31.2022C9.97608 30.7049 7.6373 29.5987 5.6669 27.9817C3.6965 26.3646 2.15532 24.2865 1.17986 21.9316C0.204409 19.5766 -0.175209 17.0174 0.0746377 14.4807C0.324484 11.944 1.19608 9.50806 2.61223 7.38865C4.02837 5.26924 5.94535 3.5318 8.19336 2.33021C9.91578 1.40957 11.7918 0.825272 13.7214 0.602379C14.6994 0.489415 15.5 1.29805 15.5 2.2825V2.2825C15.5 3.26695 14.6976 4.05138 13.7241 4.19786C12.3816 4.39988 11.0789 4.83017 9.87389 5.47427C8.14292 6.39949 6.66685 7.73732 5.57642 9.36926C4.48598 11.0012 3.81485 12.8769 3.62247 14.8302C3.43009 16.7834 3.7224 18.754 4.4735 20.5673C5.2246 22.3806 6.41131 23.9807 7.92851 25.2259C9.44572 26.471 11.2466 27.3228 13.1716 27.7057C15.0966 28.0886 17.0863 27.9908 18.9645 27.4211C20.2721 27.0245 21.4974 26.4076 22.5896 25.6011C23.3816 25.0163 24.5036 25.0036 25.1997 25.6997V25.6997Z" stroke="#EAAC8B" stroke-width="8" mask="url(#path-1-inside-1_67_150814)"/>
<mask id="path-2-inside-2_67_150814" fill="white">
<path d="M22.0708 22.5708C22.5423 23.0423 22.5462 23.8132 22.0236 24.2275C20.9925 25.0451 19.814 25.6638 18.548 26.0479C16.8956 26.5491 15.1451 26.6351 13.4515 26.2982C11.758 25.9614 10.1737 25.212 8.83887 24.1166C7.50408 23.0212 6.46006 21.6135 5.79926 20.0182C5.13847 18.4229 4.88131 16.6892 5.05056 14.9708C5.21981 13.2524 5.81025 11.6022 6.76957 10.1665C7.7289 8.73078 9.0275 7.5538 10.5503 6.73982C11.7171 6.11616 12.988 5.72035 14.2951 5.56935C14.9576 5.49283 15.5 6.04062 15.5 6.7075V6.7075C15.5 7.37438 14.9564 7.90577 14.297 8.005C13.3875 8.14185 12.5051 8.43334 11.6888 8.86966C10.5162 9.49643 9.51625 10.4027 8.77757 11.5082C8.03889 12.6137 7.58426 13.8843 7.45393 15.2075C7.32361 16.5307 7.52162 17.8656 8.03043 19.094C8.53924 20.3224 9.34314 21.4063 10.3709 22.2498C11.3987 23.0933 12.6187 23.6703 13.9227 23.9296C15.2267 24.189 16.5746 24.1228 17.847 23.7369C18.7327 23.4682 19.5628 23.0503 20.3026 22.504C20.8391 22.1078 21.5992 22.0992 22.0708 22.5708V22.5708Z"/>
</mask>
<path d="M22.0708 22.5708C22.5423 23.0423 22.5462 23.8132 22.0236 24.2275C20.9925 25.0451 19.814 25.6638 18.548 26.0479C16.8956 26.5491 15.1451 26.6351 13.4515 26.2982C11.758 25.9614 10.1737 25.212 8.83887 24.1166C7.50408 23.0212 6.46006 21.6135 5.79926 20.0182C5.13847 18.4229 4.88131 16.6892 5.05056 14.9708C5.21981 13.2524 5.81025 11.6022 6.76957 10.1665C7.7289 8.73078 9.0275 7.5538 10.5503 6.73982C11.7171 6.11616 12.988 5.72035 14.2951 5.56935C14.9576 5.49283 15.5 6.04062 15.5 6.7075V6.7075C15.5 7.37438 14.9564 7.90577 14.297 8.005C13.3875 8.14185 12.5051 8.43334 11.6888 8.86966C10.5162 9.49643 9.51625 10.4027 8.77757 11.5082C8.03889 12.6137 7.58426 13.8843 7.45393 15.2075C7.32361 16.5307 7.52162 17.8656 8.03043 19.094C8.53924 20.3224 9.34314 21.4063 10.3709 22.2498C11.3987 23.0933 12.6187 23.6703 13.9227 23.9296C15.2267 24.189 16.5746 24.1228 17.847 23.7369C18.7327 23.4682 19.5628 23.0503 20.3026 22.504C20.8391 22.1078 21.5992 22.0992 22.0708 22.5708V22.5708Z" stroke="#F7DED1" stroke-width="8" mask="url(#path-2-inside-2_67_150814)"/>
<mask id="path-3-inside-3_67_150814" fill="white">
<path d="M19.4915 3.01405C19.7639 2.06804 20.757 1.5125 21.6655 1.89165C23.2388 2.5482 24.6968 3.46144 25.9785 4.59775C27.706 6.12929 29.0696 8.02738 29.9696 10.1534C30.8696 12.2794 31.2834 14.5795 31.1806 16.8859C31.1044 18.5971 30.7453 20.2796 30.1216 21.8662C29.7615 22.7824 28.6714 23.1088 27.8025 22.6459V22.6459C26.9337 22.1831 26.6187 21.106 26.9471 20.178C27.3392 19.0703 27.5666 17.9076 27.6192 16.7272C27.6983 14.9513 27.3797 13.1802 26.6867 11.5432C25.9937 9.90616 24.9437 8.44463 23.6135 7.26535C22.7294 6.48152 21.7363 5.83554 20.6681 5.34601C19.7732 4.93589 19.2191 3.96007 19.4915 3.01405V3.01405Z"/>
</mask>
<path d="M19.4915 3.01405C19.7639 2.06804 20.757 1.5125 21.6655 1.89165C23.2388 2.5482 24.6968 3.46144 25.9785 4.59775C27.706 6.12929 29.0696 8.02738 29.9696 10.1534C30.8696 12.2794 31.2834 14.5795 31.1806 16.8859C31.1044 18.5971 30.7453 20.2796 30.1216 21.8662C29.7615 22.7824 28.6714 23.1088 27.8025 22.6459V22.6459C26.9337 22.1831 26.6187 21.106 26.9471 20.178C27.3392 19.0703 27.5666 17.9076 27.6192 16.7272C27.6983 14.9513 27.3797 13.1802 26.6867 11.5432C25.9937 9.90616 24.9437 8.44463 23.6135 7.26535C22.7294 6.48152 21.7363 5.83554 20.6681 5.34601C19.7732 4.93589 19.2191 3.96007 19.4915 3.01405V3.01405Z" stroke="#F7DED1" stroke-width="8" mask="url(#path-3-inside-3_67_150814)"/>
</svg>
